<?xml version="1.0" encoding="UTF-8"?>
<svg id="Layer_1" data-name="Layer 1" xmlns="http://www.w3.org/2000/svg" viewBox="0 0 242 242">
  <defs>
    <style>
      .cls-1 {
        fill: #0866ff;
      }

      .cls-2 {
        fill: #fff;
      }
    </style>
  </defs>
  <g id="Logo-2">
    <path id="Initiator" class="cls-1" d="M231.84,121c0-60.02-48.65-108.67-108.67-108.67S14.5,60.98,14.5,121c0,50.96,35.09,93.73,82.42,105.47v-72.26h-22.41v-33.21h22.41v-14.31c0-36.99,16.74-54.13,53.05-54.13,6.89,0,18.77,1.35,23.62,2.7v30.1c-2.56-.27-7.02-.4-12.55-.4-17.82,0-24.7,6.75-24.7,24.3v11.75h35.5l-6.1,33.21h-29.4v74.66c53.81-6.5,95.5-52.31,95.5-107.87h0Z"/>
    <path id="F" class="cls-2" d="M165.73,154.21l6.1-33.21h-35.5v-11.75c0-17.55,6.89-24.3,24.7-24.3,5.53,0,9.99.13,12.55.4v-30.1c-4.86-1.35-16.74-2.7-23.62-2.7-36.31,0-53.05,17.14-53.05,54.13v14.31h-22.41v33.21h22.41v72.26c8.41,2.09,17.2,3.2,26.25,3.2,4.46,0,8.85-.27,13.17-.8v-74.66h29.4Z"/>
  </g>
</svg>