<?xml version="1.0" encoding="UTF-8"?>
<svg id="Layer_1" data-name="Layer 1" xmlns="http://www.w3.org/2000/svg" viewBox="0 0 242 242">
  <defs>
    <style>
      .cls-1 {
        fill: #4285f4;
      }

      .cls-2 {
        fill: #fbbc05;
      }

      .cls-3 {
        fill: #34a853;
      }

      .cls-4 {
        fill: #ea4335;
      }
    </style>
  </defs>
  <path class="cls-1" d="M227.5,123.47c0-7.71-.69-15.12-1.98-22.23h-102.35v42.09h58.49c-2.57,13.53-10.27,24.99-21.83,32.7v27.37h35.27c20.55-18.97,32.4-46.83,32.4-79.92Z"/>
  <path class="cls-3" d="M123.17,229.67c29.34,0,53.94-9.68,71.92-26.28l-35.27-27.37c-9.68,6.52-22.03,10.47-36.65,10.47-28.26,0-52.26-19.07-60.86-44.75H26.16v28.06c17.88,35.47,54.53,59.87,97.02,59.87Z"/>
  <path class="cls-2" d="M62.32,141.65c-2.17-6.52-3.46-13.44-3.46-20.65s1.28-14.13,3.46-20.65v-28.06H26.16c-7.41,14.62-11.66,31.12-11.66,48.71s4.25,34.08,11.66,48.71l28.16-21.93s8-6.13,8-6.13Z"/>
  <path class="cls-4" d="M123.17,55.6c16,0,30.23,5.53,41.59,16.2l31.12-31.12c-18.87-17.59-43.37-28.35-72.71-28.35-42.48,0-79.13,24.4-97.02,59.97l36.16,28.06c8.6-25.69,32.6-44.75,60.86-44.75Z"/>
</svg>